<svg width="50" height="50" viewBox="0 0 50 50" fill="none" xmlns="http://www.w3.org/2000/svg">
<g clip-path="url(#clip0_60_371)">
<path d="M24.9999 1.0415C18.6457 1.0415 12.5518 3.56568 8.05878 8.05874C3.56572 12.5518 1.04154 18.6457 1.04154 24.9998C1.03159 30.5164 2.87429 35.8765 6.27419 40.2208C9.6741 44.5652 14.4343 47.642 19.7915 48.9582V42.7082H17.7082C12.2499 42.7082 10.3332 34.3748 7.29154 34.3748C13.104 34.3748 14.229 38.5415 17.7082 38.5415C17.9907 38.5792 18.2781 38.5513 18.548 38.46C18.818 38.3686 19.0633 38.2163 19.2648 38.0148C19.4663 37.8132 19.6187 37.568 19.71 37.298C19.8014 37.028 19.8293 36.7407 19.7915 36.4582V35.729C13.729 34.0207 9.37488 29.479 9.37488 23.9582C9.42363 21.086 10.5982 18.3479 12.6457 16.3332C12.1238 15.2069 11.931 13.9559 12.0895 12.7247C12.248 11.4935 12.7514 10.3322 13.5415 9.37484C15.4474 9.947 17.1615 11.0273 18.4999 12.4998C22.699 10.9748 27.3007 10.9748 31.4999 12.4998C32.8383 11.0273 34.5524 9.947 36.4582 9.37484C37.2484 10.3322 37.7518 11.4935 37.9103 12.7247C38.0688 13.9559 37.876 15.2069 37.354 16.3332C39.4016 18.3479 40.5761 21.086 40.6249 23.9582C40.6249 29.6665 35.854 34.3748 29.3332 35.9582C30.005 37.4179 30.3055 39.0209 30.2082 40.6248V48.9582C35.5655 47.642 40.3257 44.5652 43.7256 40.2208C47.1255 35.8765 48.9682 30.5164 48.9582 24.9998C48.9582 18.6457 46.434 12.5518 41.941 8.05874C37.4479 3.56568 31.354 1.0415 24.9999 1.0415V1.0415Z" stroke="#FF1786" stroke-linecap="round" stroke-linejoin="round"/>
</g>
<defs>
<clipPath id="clip0_60_371">
<rect width="50" height="50" fill="white"/>
</clipPath>
</defs>
</svg>
