<svg width="46" height="46" viewBox="0 0 46 46" fill="none" xmlns="http://www.w3.org/2000/svg">
<path d="M33.4583 1.125H12.5417C6.23642 1.125 1.125 6.23642 1.125 12.5417V33.4583C1.125 39.7636 6.23642 44.875 12.5417 44.875H33.4583C39.7636 44.875 44.875 39.7636 44.875 33.4583V12.5417C44.875 6.23642 39.7636 1.125 33.4583 1.125Z" stroke="#FF1786" stroke-linecap="round" stroke-linejoin="round"/>
<path d="M23.0001 34.4582C29.3283 34.4582 34.4584 29.3281 34.4584 22.9998C34.4584 16.6716 29.3283 11.5415 23.0001 11.5415C16.6718 11.5415 11.5417 16.6716 11.5417 22.9998C11.5417 29.3281 16.6718 34.4582 23.0001 34.4582Z" stroke="#FF1786" stroke-linecap="round" stroke-linejoin="round"/>
<path d="M35.4999 9.45833C36.0752 9.45833 36.5416 8.99196 36.5416 8.41667C36.5416 7.84137 36.0752 7.375 35.4999 7.375C34.9246 7.375 34.4583 7.84137 34.4583 8.41667C34.4583 8.99196 34.9246 9.45833 35.4999 9.45833Z" stroke="#FF1786" stroke-linecap="round" stroke-linejoin="round"/>
</svg>
