<svg width="52" height="52" viewBox="0 0 52 52" fill="none" xmlns="http://www.w3.org/2000/svg">
<path fill-rule="evenodd" clip-rule="evenodd" d="M11.5263 1H40.4737C43.2654 1 45.9428 2.10902 47.9169 4.08309C49.891 6.05715 51 8.73456 51 11.5263V40.4737C51 43.2654 49.891 45.9428 47.9169 47.9169C45.9428 49.891 43.2654 51 40.4737 51H11.5263C8.73456 51 6.05715 49.891 4.08309 47.9169C2.10902 45.9428 1 43.2654 1 40.4737V11.5263C1 8.73456 2.10902 6.05715 4.08309 4.08309C6.05715 2.10902 8.73456 1 11.5263 1V1Z" stroke="#FF1786"/>
<path d="M14.1577 16.7895C15.6111 16.7895 16.7893 15.6113 16.7893 14.1579C16.7893 12.7046 15.6111 11.5264 14.1577 11.5264C12.7043 11.5264 11.5261 12.7046 11.5261 14.1579C11.5261 15.6113 12.7043 16.7895 14.1577 16.7895Z" fill="#FF1786"/>
<path d="M14.158 22.0522V37.8417M37.8422 37.8417V29.947C37.8422 27.8532 37.0104 25.8451 35.5299 24.3646C34.0493 22.884 32.0412 22.0522 29.9474 22.0522C27.8536 22.0522 25.8456 22.884 24.365 24.3646C22.8845 25.8451 22.0527 27.8532 22.0527 29.947V37.8417V22.0522" stroke="#FF1786" stroke-linecap="round" stroke-linejoin="round"/>
</svg>
