<svg width="100" height="100" viewBox="0 0 100 100" fill="none" xmlns="http://www.w3.org/2000/svg">
<path d="M49.5241 1.55311C46.2257 1.56874 43.0773 1.84921 40.3054 2.33983C32.1413 3.78202 30.6601 6.80077 30.6601 12.3687V19.7211H49.9515V22.1719H23.4194C17.8132 22.1719 12.9038 25.5414 11.3679 31.9539C9.59601 39.3015 9.51788 43.8875 11.3679 51.5601C12.739 57.2719 16.014 61.3406 21.621 61.3406H28.2546V52.5266C28.2546 46.1586 33.7632 40.5422 40.3062 40.5422H59.5757C64.9398 40.5422 69.221 36.125 69.221 30.739V12.3695C69.221 7.14061 64.8101 3.21327 59.5757 2.34061C56.2601 1.78905 52.8218 1.53827 49.5241 1.55311ZM39.0913 7.46639C41.0835 7.46639 42.7116 9.1203 42.7116 11.1547C42.7116 13.1805 41.0843 14.8187 39.0913 14.8187C37.0913 14.8187 35.4718 13.1805 35.4718 11.1547C35.471 9.1203 37.0913 7.46639 39.0913 7.46639Z" fill="url(#paint0_linear_16_128)"/>
<path d="M71.6266 22.1719V30.7391C71.6266 37.3797 65.9953 42.9696 59.575 42.9696H40.3055C35.0273 42.9696 30.6602 47.4876 30.6602 52.7735V71.1446C30.6602 76.3719 35.2055 79.4477 40.3055 80.9469C46.4117 82.7415 52.268 83.0665 59.575 80.9469C64.4312 79.5399 69.2203 76.7102 69.2203 71.1446V63.7915H49.9516V61.3399H78.8672C84.4734 61.3399 86.5641 57.4297 88.5141 51.5594C90.5281 45.5165 90.4414 39.7047 88.5141 31.9532C87.1281 26.3711 84.482 22.1711 78.8672 22.1711H71.6266V22.1719ZM60.7883 68.693C62.7891 68.693 64.4086 70.3313 64.4086 72.3586C64.4086 74.3915 62.7883 76.0454 60.7883 76.0454C58.7961 76.0454 57.1688 74.3915 57.1688 72.3586C57.1688 70.3313 58.7961 68.693 60.7883 68.693Z" fill="url(#paint1_linear_16_128)"/>
<path opacity="0.444" d="M76.0226 93.4352C76.0226 96.2031 64.4476 98.4477 50.1703 98.4477C35.8921 98.4477 24.3171 96.2031 24.3171 93.4352C24.3171 90.6664 35.8914 88.4219 50.1703 88.4219C64.4476 88.4219 76.0226 90.6656 76.0226 93.4352Z" fill="url(#paint2_radial_16_128)"/>
<defs>
<linearGradient id="paint0_linear_16_128" x1="8.0756" y1="3.85204" x2="52.5707" y2="41.7973" gradientUnits="userSpaceOnUse">
<stop stop-color="#5A9FD4"/>
<stop offset="1" stop-color="#306998"/>
</linearGradient>
<linearGradient id="paint1_linear_16_128" x1="69.3116" y1="65.3847" x2="53.3549" y2="43.008" gradientUnits="userSpaceOnUse">
<stop stop-color="#FFD43B"/>
<stop offset="1" stop-color="#FFE873"/>
</linearGradient>
<radialGradient id="paint2_radial_16_128" cx="0" cy="0" r="1" gradientUnits="userSpaceOnUse" gradientTransform="translate(50.0658 93.2916) rotate(-90) scale(5.01431 22.0421)">
<stop stop-color="#B8B8B8" stop-opacity="0.498"/>
<stop offset="1" stop-color="#7F7F7F" stop-opacity="0"/>
</radialGradient>
</defs>
</svg>
